<svg width="89" height="89" viewBox="0 0 89 89" fill="none" xmlns="http://www.w3.org/2000/svg">
    <path d="M81.8663 21.661H63.281C61.8413 21.661 60.6633 20.4831 60.6633 19.0434C60.6633 17.6037 61.8413 16.4257 63.281 16.4257H76.1075L74.9949 4.97353C74.8641 3.53382 75.9111 2.225 77.3508 2.09411C78.7905 1.96323 80.0994 3.01029 80.2302 4.45L81.8663 21.661Z"
          fill="#798BA3"/>
    <path d="M81.4471 35.9613H24.8377C23.5404 35.9613 22.479 37.0798 22.479 38.4468V64.5437C22.479 65.9107 23.5404 67.0292 24.8377 67.0292H81.4471C82.7444 67.0292 83.8058 65.9107 83.8058 64.5437V38.4468C83.8058 37.0798 82.7444 35.9613 81.4471 35.9613Z"
          fill="url(#paint0_linear_13_50)" fill-opacity="0.7"/>
    <path d="M81.4468 30.9905H24.8374C20.9455 30.9905 17.7612 34.3458 17.7612 38.4468V64.5437C17.7612 68.6447 20.9455 72 24.8374 72H49.663H81.3878C85.2797 72 88.464 68.6447 88.464 64.5437V38.4468C88.5229 34.3458 85.3387 30.9905 81.4468 30.9905ZM83.8055 64.5437C83.8055 65.9107 82.7441 67.0292 81.4468 67.0292H24.8374C23.5401 67.0292 22.4787 65.9107 22.4787 64.5437V38.4468C22.4787 37.0798 23.5401 35.9613 24.8374 35.9613H81.4468C82.7441 35.9613 83.8055 37.0798 83.8055 38.4468V64.5437Z"
          fill="#798BA3"/>
    <path d="M76.1395 47.7671H49.6038C48.3065 47.7671 47.2451 46.6487 47.2451 45.2817C47.2451 43.9147 48.3065 42.7962 49.6038 42.7962H76.1395C77.4368 42.7962 78.4982 43.9147 78.4982 45.2817C78.4982 46.6487 77.4368 47.7671 76.1395 47.7671Z"
          fill="#798BA3"/>
    <path d="M62.5772 56.4661H44.8868C43.5895 56.4661 42.5281 55.3476 42.5281 53.9807C42.5281 52.6137 43.5895 51.4952 44.8868 51.4952H62.5772C63.8745 51.4952 64.9359 52.6137 64.9359 53.9807C64.9359 55.3476 63.8745 56.4661 62.5772 56.4661Z"
          fill="#798BA3"/>
    <path d="M72.7051 71.7235C65.5721 79.1184 55.5596 83.7647 44.5 83.7647C22.839 83.7647 5.23529 66.161 5.23529 44.5C5.23529 22.839 22.839 5.23529 44.5 5.23529C57.6537 5.23529 69.3022 11.714 76.4353 21.661H81.8015L81.6706 20.0904C73.6868 7.98382 60.0096 0 44.5 0C19.9596 0 0 19.9596 0 44.5C0 69.0404 19.9596 89 44.5 89C58.7662 89 71.4618 82.2596 79.6419 71.7235H72.7051Z"
          fill="#798BA3"/>
    <defs>
        <linearGradient id="paint0_linear_13_50" x1="93.5232" y1="24.29" x2="29.5375" y2="63.1088"
                        gradientUnits="userSpaceOnUse">
            <stop stop-color="#FA3872"/>
            <stop offset="1" stop-color="#FA3BEB"/>
        </linearGradient>
    </defs>
</svg>
