<svg width="46" height="46" viewBox="0 0 46 46" fill="none" xmlns="http://www.w3.org/2000/svg">
    <path fill-rule="evenodd" clip-rule="evenodd"
          d="M7.09522 0.545531C10.3813 0.278542 15.5861 7.25171e-07 23 4.02146e-06C30.4139 5.31775e-06 35.6187 0.278556 38.9048 0.545547C42.4368 0.832517 45.1675 3.56319 45.4545 7.09523C45.7215 10.3813 46 15.5861 46 23C46 30.4139 45.7215 35.6187 45.4545 38.9048C45.1675 42.4368 42.4368 45.1675 38.9048 45.4545C35.6187 45.7214 30.4139 46 23 46C15.5861 46 10.3813 45.7214 7.09519 45.4544C3.56316 45.1675 0.832493 42.4368 0.545523 38.9048C0.278534 35.6187 -7.31772e-06 30.4139 -4.02144e-06 23C-2.72515e-06 15.5861 0.278548 10.3813 0.545539 7.0952C0.832509 3.56317 3.56318 0.832501 7.09522 0.545531ZM23 4C15.6859 4 10.5896 4.2748 7.41914 4.53239C5.84058 4.66064 4.66066 5.84057 4.5324 7.41913C4.27481 10.5895 4 15.6859 4 23C3.99999 30.314 4.27479 35.4104 4.53238 38.5808C4.66064 40.1594 5.84055 41.3393 7.41912 41.4676C10.5895 41.7252 15.6859 42 23 42C30.3141 42 35.4105 41.7252 38.5809 41.4676C40.1594 41.3393 41.3394 40.1594 41.4676 38.5809C41.7252 35.4104 42 30.3141 42 23C42 15.6859 41.7252 10.5896 41.4676 7.41915C41.3394 5.84059 40.1594 4.66067 38.5809 4.53241C35.4105 4.27482 30.3141 4.00001 23 4Z"
          fill="white"/>
    <path d="M37.9577 11.184C37.9826 11.6628 38 12.2678 38 13.0243C38 13.7531 37.9838 14.3413 37.9604 14.8115C37.8967 16.0879 37.0488 16.9219 36.0698 16.9483C35.1125 16.9742 33.5255 17 31 17C28.4744 17 26.8873 16.9742 25.9301 16.9483C24.9512 16.9219 24.1034 16.0881 24.0397 14.8119C24.0161 14.3416 24 13.7533 24 13.0243C24 12.2676 24.0174 11.6625 24.0424 11.1837C24.1071 9.94054 24.9221 9.11682 25.8812 9.07786C26.8357 9.0391 28.4343 8.99997 31 8.99997C33.5655 8.99997 35.1642 9.03909 36.1186 9.07785C37.0779 9.11682 37.893 9.94071 37.9577 11.184Z"
          fill="white"/>
    <path d="M10.1841 8.04534C10.6628 8.01864 11.2678 8 12.0243 8C12.7531 8 13.3414 8.01731 13.8115 8.04244C15.0879 8.11068 15.9219 9.0191 15.9483 10.0681C15.9742 11.0937 16 27.7942 16 30.4999C16 33.206 15.9742 34.9064 15.9483 35.932C15.9219 36.9808 15.0881 37.8892 13.8119 37.9575C13.3417 37.9827 12.7533 38 12.0243 38C11.2677 38 10.6625 37.9813 10.1837 37.9546C8.94057 37.8852 8.11685 37.012 8.07789 35.9844C8.03913 34.9618 8 33.2489 8 30.4999C8 27.7512 8.03913 11.0384 8.07789 10.0157C8.11685 8.98795 8.94074 8.11465 10.1841 8.04534Z"
          fill="white"/>
    <path d="M37.9577 21.184C37.9826 21.6628 38 22.2678 38 23.0243C38 23.7531 37.9838 24.3413 37.9604 24.8115C37.8967 26.0879 37.0488 26.9219 36.0698 26.9483C35.1125 26.9742 33.5255 27 31 27C28.4744 27 26.8873 26.9742 25.9301 26.9483C24.9512 26.9219 24.1034 26.0881 24.0397 24.8119C24.0161 24.3416 24 23.7533 24 23.0243C24 22.2676 24.0174 21.6625 24.0424 21.1837C24.1071 19.9405 24.9221 19.1168 25.8812 19.0779C26.8357 19.0391 28.4343 19 31 19C33.5655 19 35.1642 19.0391 36.1186 19.0779C37.0779 19.1168 37.893 19.9407 37.9577 21.184Z"
          fill="white"/>
    <path d="M37.9577 31.184C37.9826 31.6628 38 32.2678 38 33.0243C38 33.7531 37.9838 34.3413 37.9604 34.8115C37.8967 36.0879 37.0488 36.9219 36.0698 36.9483C35.1125 36.9742 33.5255 37 31 37C28.4744 37 26.8873 36.9742 25.9301 36.9483C24.9512 36.9219 24.1034 36.0881 24.0397 34.8119C24.0161 34.3416 24 33.7533 24 33.0243C24 32.2676 24.0174 31.6625 24.0424 31.1837C24.1071 29.9405 24.9221 29.1168 25.8812 29.0779C26.8357 29.0391 28.4343 29 31 29C33.5655 29 35.1642 29.0391 36.1186 29.0779C37.0779 29.1168 37.893 29.9407 37.9577 31.184Z"
          fill="white"/>
    <path fill-rule="evenodd" clip-rule="evenodd"
          d="M19.7925 20.1519C19.3938 19.826 18.8959 20.0522 18.8621 20.566C18.8407 20.8913 18.821 21.3066 18.8088 21.8277C18.7917 21.8255 18.7742 21.8244 18.7564 21.8245C16.6708 21.8351 14.9751 21.9275 14.1555 21.9811C13.8336 22.0022 13.5706 22.2264 13.5488 22.5482C13.5403 22.6738 13.5345 22.8234 13.5345 22.9985C13.5345 23.1736 13.5403 23.3232 13.5488 23.4488C13.5706 23.7706 13.8336 23.9948 14.1555 24.0159C14.9751 24.0695 16.6708 24.1619 18.7564 24.1725C18.7742 24.1726 18.7917 24.1715 18.8088 24.1693C18.821 24.6904 18.8407 25.1056 18.8621 25.4309C18.8959 25.9449 19.3939 26.171 19.7928 25.8451C20.0615 25.6255 20.4035 25.3305 20.8294 24.937C21.5807 24.2431 21.9988 23.7233 22.2223 23.3975C22.3909 23.1519 22.3909 22.8453 22.2223 22.5998C21.9987 22.2741 21.5806 21.7543 20.8294 21.0603C20.4033 20.6666 20.0613 20.3715 19.7925 20.1519Z"
          fill="white"/>
    <path fill-rule="evenodd" clip-rule="evenodd"
          d="M18.1212 11.6078C17.613 11.525 17.2949 11.9698 17.5226 12.4316C17.6667 12.7241 17.8573 13.0935 18.1072 13.551C18.0913 13.5576 18.0756 13.5654 18.0603 13.5744C16.2593 14.6264 14.837 15.5542 14.154 16.0105C13.8858 16.1897 13.7702 16.5153 13.9122 16.805C13.9676 16.918 14.0374 17.0504 14.125 17.202C14.2126 17.3537 14.2923 17.4804 14.3625 17.5849C14.5423 17.8527 14.8821 17.9154 15.1714 17.7727C15.9081 17.4093 17.4228 16.6415 19.2343 15.6079C19.2497 15.5991 19.2643 15.5894 19.278 15.5789C19.5492 16.024 19.7738 16.3737 19.955 16.6448C20.2413 17.073 20.7856 17.0198 20.9681 16.5382C21.091 16.2136 21.2397 15.7871 21.4118 15.2334C21.7155 14.2569 21.8176 13.5976 21.8484 13.2037C21.8715 12.9067 21.7182 12.6412 21.4494 12.5129C21.093 12.3426 20.471 12.1015 19.4734 11.876C18.9076 11.7482 18.4638 11.6636 18.1212 11.6078Z"
          fill="white"/>
    <path fill-rule="evenodd" clip-rule="evenodd"
          d="M20.9679 29.4587C20.7855 28.9771 20.2413 28.9241 19.9551 29.3521C19.7739 29.6232 19.5492 29.9729 19.2781 30.4181C19.2643 30.4076 19.2497 30.3979 19.2343 30.3891C17.4228 29.3555 15.9081 28.5877 15.1714 28.2243C14.8821 28.0816 14.5423 28.1443 14.3625 28.4121C14.2923 28.5166 14.2126 28.6433 14.125 28.7949C14.0374 28.9466 13.9676 29.079 13.9122 29.192C13.7702 29.4817 13.8858 29.8073 14.154 29.9865C14.837 30.4428 16.2593 31.3706 18.0603 32.4226C18.0756 32.4316 18.0913 32.4394 18.1072 32.446C17.8573 32.9034 17.6667 33.2728 17.5226 33.5653C17.2949 34.0272 17.6131 34.4721 18.1215 34.3893C18.464 34.3335 18.9077 34.249 19.4733 34.1212C20.4708 33.8959 21.0928 33.6547 21.4493 33.4844C21.7181 33.356 21.8714 33.0905 21.8482 32.7935C21.8174 32.3997 21.7152 31.7404 21.4117 30.7638C21.2395 30.2099 21.0908 29.7832 20.9679 29.4587Z"
          fill="white"/>
</svg>
