<?xml version="1.0" encoding="utf-8"?>
<!-- Generator: Adobe Illustrator 26.5.0, SVG Export Plug-In . SVG Version: 6.00 Build 0)  -->
<svg version="1.1" xmlns="http://www.w3.org/2000/svg" xmlns:xlink="http://www.w3.org/1999/xlink" x="0px" y="0px"
	 viewBox="0 0 507 534" enable-background="new 0 0 507 534" xml:space="preserve">
<g id="Ebene_2">
</g>
<g id="Ebene_1">
	<g>
		<g>
			
				<linearGradient id="SVGID_1_" gradientUnits="userSpaceOnUse" x1="404.9827" y1="439.8908" x2="84.9827" y2="115.8908" gradientTransform="matrix(1 0 0 -1 0 533.89)">
				<stop  offset="0" style="stop-color:#E93068"/>
				<stop  offset="1" style="stop-color:#FA2EE8"/>
			</linearGradient>
			<path fill="url(#SVGID_1_)" d="M245.7,296.9c-47.1-78-38.7-174,14-242c-37.7,0-75.8,10-110.4,30.9C48,147,15.5,278.6,76.7,379.9
				c61.2,101.3,153.2,111.2,254.4,50.1c21.6-13.1,41.9-28.3,59.9-45.3C334.1,387.7,283.9,360.1,245.7,296.9z"/>
			
				<linearGradient id="SVGID_00000169541026279936959440000004180707732374074256_" gradientUnits="userSpaceOnUse" x1="427.6335" y1="417.5197" x2="107.6334" y2="93.5197" gradientTransform="matrix(1 0 0 -1 0 533.89)">
				<stop  offset="0" style="stop-color:#E93068"/>
				<stop  offset="1" style="stop-color:#FA2EE8"/>
			</linearGradient>
			<path fill="url(#SVGID_00000169541026279936959440000004180707732374074256_)" d="M443.3,158.3C403,91.7,332.2,54.9,259.6,54.9
				c-52.6,68-61.1,164-14,242c38.2,63.2,88.4,90.8,145.3,87.8C457.1,322.5,491.4,238,443.3,158.3z"/>
			
				<linearGradient id="SVGID_00000132810373860761571760000003784550365408135612_" gradientUnits="userSpaceOnUse" x1="214.7738" y1="219.9139" x2="634.8298" y2="219.9139">
				<stop  offset="0" style="stop-color:#E93068"/>
				<stop  offset="1" style="stop-color:#FA2EE8"/>
			</linearGradient>
			<path opacity="0.31" fill="url(#SVGID_00000132810373860761571760000003784550365408135612_)" d="M443.3,158.3
				C403,91.7,332.2,54.9,259.6,54.9c-52.6,68-61.1,164-14,242c38.2,63.2,88.4,90.8,145.3,87.8C457.1,322.5,491.4,238,443.3,158.3z"
				/>
		</g>
		<path d="M226.9,458.9c-48.2,0-74.9-9.8-105.2-34c0.6-0.8,1.1-1.6,1.6-2.5c10.7-17.7,5-40.8-12.7-51.5c-7.7-4.7-16.4-6.2-24.7-5
			c-0.2-37.1,15.6-82.5,43.1-122.2c33.3-48.1,79.8-83.4,132.4-100.5l6.1,17.8l44.8-41.7l-61.5-6.9l5.7,16.5
			c-55.6,18.2-104.8,55.4-139.9,106.1c-27,39.1-43.4,83.9-45.5,122.2c-17.8-33.8-23.7-75.3-16-117.1c9-48.9,35.8-92.9,74.5-123.4
			l12.4,14.7l26.8-55L109,92.3l11,13.1c-18.5,14.6-34.5,32-47.5,51.9c-15.8,24.2-26.9,51.9-32.1,80.3c-9.2,50.1-0.3,100,24.4,138.7
			c-2.2,2.1-4.1,4.6-5.7,7.3c-10.7,17.7-5,40.8,12.7,51.5c12.3,7.4,27.2,7,38.7,0.1c33.4,27.1,62.8,38.6,116,38.7l-0.4,17.5
			l56.6-25.2L227.4,440L226.9,458.9z"/>
		<path fill="#FFFFFF" d="M220.7,247l1.3-32h-1.5l-21.3,58.9L177.9,215h-1.5l1.3,32v51h-21.3V183.5h29l14.1,38.6h1.3l14.1-38.6H242
			V298h-21.3V247z M292.5,300c-9.6,0-18-1.6-25.1-4.8s-12.8-7.5-17.2-13l14.3-15.7c4.2,4.6,8.7,8,13.6,10.2c5,2.2,10.1,3.3,15.3,3.3
			c5.9,0,10.4-1.3,13.5-3.9c3.1-2.6,4.6-6.4,4.6-11.3c0-4-1.2-7.1-3.6-9.2c-2.3-2.1-6.2-3.6-11.8-4.4l-12-2
			c-10.3-1.8-17.7-5.5-22.3-11.3c-4.6-5.9-6.9-13.1-6.9-21.5c0-11,3.6-19.6,10.8-25.6c7.2-6.1,17.3-9.2,30.3-9.2
			c8.9,0,16.6,1.4,23.1,4.1c6.6,2.7,11.9,6.5,15.9,11.2L321,212.4c-3.1-3.4-6.7-6-10.8-7.9c-4.2-2-8.9-3-14.1-3
			c-11,0-16.6,4.5-16.6,13.6c0,3.9,1.2,6.9,3.6,8.9c2.5,2,6.6,3.4,12.1,4.4l12,2.1c9.3,1.6,16.5,5.1,21.5,10.5s7.5,12.6,7.5,21.7
			c0,5.4-0.9,10.3-2.8,14.9c-1.9,4.5-4.6,8.4-8.4,11.8c-3.7,3.3-8.3,5.9-13.8,7.7C306,299,299.7,300,292.5,300z M352.6,298V183.5
			h44.3c5.6,0,10.6,0.9,14.9,2.6c4.4,1.6,8,4,11,7.2c3.1,3.2,5.4,7,6.9,11.5s2.3,9.5,2.3,15.1s-0.8,10.6-2.3,15.1
			c-1.5,4.5-3.8,8.3-6.9,11.5c-3,3.2-6.6,5.6-11,7.4c-4.4,1.6-9.4,2.5-14.9,2.5h-19.5V298H352.6z M377.4,236.5h13.3
			c5.8,0,9.8-1.1,12-3.3c2.3-2.2,3.4-5.8,3.4-10.8v-4.9c0-5-1.1-8.6-3.4-10.8c-2.2-2.2-6.2-3.3-12-3.3h-13.3V236.5z"/>
	</g>
</g>
</svg>
