<svg width="64" height="64" viewBox="0 0 64 64" fill="none" xmlns="http://www.w3.org/2000/svg">
<rect width="64" height="64" rx="15" fill="url(#paint0_linear_60_836)"/>
<g filter="url(#filter0_dd_60_836)">
<path fill-rule="evenodd" clip-rule="evenodd" d="M17.1411 46.6406C17.9068 47.7803 19.0447 48.6805 20.4536 49.1659C22.8226 49.9822 26.2848 51.0761 31.019 52.3446C35.7531 53.6132 39.2984 54.3968 41.7581 54.8744C44.9926 55.5025 48.0934 53.7123 49.1666 50.5972C49.9829 48.2282 51.0768 44.766 52.3453 40.0319C53.6139 35.2978 54.3975 31.7524 54.8751 29.2926C55.5032 26.0583 53.713 22.9575 50.5979 21.8841C49.5502 21.5231 48.2885 21.1078 46.7976 20.6471C46.8578 22.4739 46.8963 24.5846 46.8963 26.9961C46.8963 31.9514 46.7339 35.637 46.5543 38.1981C46.237 42.7215 42.7212 46.2373 38.1979 46.5546C35.6367 46.7342 31.9511 46.8965 26.9958 46.8965C22.8508 46.8965 19.5943 46.7829 17.1411 46.6406Z" fill="white"/>
</g>
<g filter="url(#filter1_dd_60_836)">
<path d="M26.9942 44.4071C22.093 44.4071 18.4657 44.2466 15.9661 44.0712C12.6794 43.8408 10.1476 41.309 9.91714 38.0223C9.74186 35.5227 9.58127 31.8953 9.58127 26.9942C9.58127 22.0931 9.74186 18.4658 9.91714 15.9662C10.1476 12.6794 12.6794 10.1477 15.9661 9.91718C18.4657 9.7419 22.0931 9.58131 26.9942 9.58131C31.8953 9.58131 35.5226 9.7419 38.0222 9.91718C41.309 10.1477 43.8407 12.6794 44.0712 15.9662C44.2465 18.4658 44.4071 22.0931 44.4071 26.9942C44.4071 31.8954 44.2465 35.5227 44.0712 38.0223C43.8407 41.309 41.309 43.8408 38.0222 44.0712C35.5226 44.2466 31.8953 44.4071 26.9942 44.4071Z" fill="#CA719F"/>
</g>
<g filter="url(#filter2_dd_60_836)">
<path fill-rule="evenodd" clip-rule="evenodd" d="M26.9119 14C23.0954 14 19.4529 15.4874 16.9447 17.9988C16.4302 17.7246 16.0057 17.5089 15.658 17.3395C15.2366 17.1342 14.7933 17.1795 14.4665 17.4169C14.141 17.6533 13.9578 18.0604 14.0083 18.5223C14.3409 21.5655 15.1296 23.5885 15.5594 24.5062C15.7691 24.9542 16.2239 25.217 16.7169 25.1748C17.7257 25.0886 19.8691 24.761 22.6661 23.5281C23.0908 23.3408 23.3516 22.9789 23.3937 22.5791C23.436 22.1777 23.2543 21.7714 22.8666 21.5087C22.6386 21.3543 22.3709 21.1778 22.057 20.9773C23.3796 19.8509 25.0188 19.1399 26.9119 19.1399C31.6 19.1399 35.3704 22.5959 35.3704 27.1768C35.3704 28.9627 34.7992 30.6168 33.8262 31.9726C33.4672 32.4728 33.4113 33.1674 33.7868 33.6958L34.9174 35.2871C35.4024 35.9695 36.4121 36.0858 36.9788 35.4148C38.8649 33.1815 40 30.3096 40 27.1768C40 20.0618 34.1443 14 26.9119 14ZM16.1913 29.1936C15.335 29.1936 14.652 29.9813 14.8995 30.8423C15.1548 31.7303 15.4936 32.5788 15.9088 33.3762C16.3093 34.1456 17.3035 34.264 17.9304 33.7233L18.6067 33.1399C19.1842 32.6419 19.2261 31.801 18.8441 31.1942C18.6341 30.8605 18.4523 30.5134 18.3022 30.155C18.0752 29.6129 17.5582 29.1936 16.9321 29.1936H16.1913ZM22.1889 34.2568C21.6656 33.9702 20.9985 33.9992 20.5275 34.4054L19.2907 35.4721C18.6814 35.9977 18.6316 36.9656 19.2963 37.4874C20.3963 38.351 21.6506 39.0272 23.0289 39.4702C23.8206 39.7246 24.5883 39.1633 24.701 38.3788L24.9567 36.5995C25.0605 35.8778 24.5875 35.2275 23.9261 35.0103C23.3245 34.8128 22.7411 34.5593 22.1889 34.2568ZM32.1723 35.244C31.7538 34.6551 30.9753 34.5102 30.3485 34.7847C29.7419 35.0505 29.0975 35.2481 28.4256 35.3675C27.8137 35.4763 27.2866 35.9433 27.1937 36.5903L26.9225 38.4771C26.8034 39.3058 27.4544 40.0849 28.3266 39.9925C29.918 39.824 31.4243 39.3746 32.7929 38.6954C33.5338 38.3278 33.7021 37.397 33.2437 36.752L32.1723 35.244Z" fill="white"/>
</g>
<defs>
<filter id="filter0_dd_60_836" x="15.1411" y="19.6471" width="41.8589" height="38.3522" filterUnits="userSpaceOnUse" color-interpolation-filters="sRGB">
<feFlood flood-opacity="0" result="BackgroundImageFix"/>
<feColorMatrix in="SourceAlpha" type="matrix" values="0 0 0 0 0 0 0 0 0 0 0 0 0 0 0 0 0 0 127 0" result="hardAlpha"/>
<feOffset dy="1"/>
<feGaussianBlur stdDeviation="1"/>
<feColorMatrix type="matrix" values="0 0 0 0 0 0 0 0 0 0 0 0 0 0 0 0 0 0 0.2 0"/>
<feBlend mode="normal" in2="BackgroundImageFix" result="effect1_dropShadow_60_836"/>
<feColorMatrix in="SourceAlpha" type="matrix" values="0 0 0 0 0 0 0 0 0 0 0 0 0 0 0 0 0 0 127 0" result="hardAlpha"/>
<feOffset dy="1"/>
<feGaussianBlur stdDeviation="0.5"/>
<feColorMatrix type="matrix" values="0 0 0 0 0 0 0 0 0 0 0 0 0 0 0 0 0 0 0.1 0"/>
<feBlend mode="normal" in2="effect1_dropShadow_60_836" result="effect2_dropShadow_60_836"/>
<feBlend mode="normal" in="SourceGraphic" in2="effect2_dropShadow_60_836" result="shape"/>
</filter>
<filter id="filter1_dd_60_836" x="7.58127" y="8.58131" width="38.8258" height="38.8258" filterUnits="userSpaceOnUse" color-interpolation-filters="sRGB">
<feFlood flood-opacity="0" result="BackgroundImageFix"/>
<feColorMatrix in="SourceAlpha" type="matrix" values="0 0 0 0 0 0 0 0 0 0 0 0 0 0 0 0 0 0 127 0" result="hardAlpha"/>
<feOffset dy="1"/>
<feGaussianBlur stdDeviation="1"/>
<feColorMatrix type="matrix" values="0 0 0 0 0 0 0 0 0 0 0 0 0 0 0 0 0 0 0.2 0"/>
<feBlend mode="normal" in2="BackgroundImageFix" result="effect1_dropShadow_60_836"/>
<feColorMatrix in="SourceAlpha" type="matrix" values="0 0 0 0 0 0 0 0 0 0 0 0 0 0 0 0 0 0 127 0" result="hardAlpha"/>
<feOffset dy="1"/>
<feGaussianBlur stdDeviation="0.5"/>
<feColorMatrix type="matrix" values="0 0 0 0 0 0 0 0 0 0 0 0 0 0 0 0 0 0 0.1 0"/>
<feBlend mode="normal" in2="effect1_dropShadow_60_836" result="effect2_dropShadow_60_836"/>
<feBlend mode="normal" in="SourceGraphic" in2="effect2_dropShadow_60_836" result="shape"/>
</filter>
<filter id="filter2_dd_60_836" x="12" y="13" width="30" height="30" filterUnits="userSpaceOnUse" color-interpolation-filters="sRGB">
<feFlood flood-opacity="0" result="BackgroundImageFix"/>
<feColorMatrix in="SourceAlpha" type="matrix" values="0 0 0 0 0 0 0 0 0 0 0 0 0 0 0 0 0 0 127 0" result="hardAlpha"/>
<feOffset dy="1"/>
<feGaussianBlur stdDeviation="1"/>
<feColorMatrix type="matrix" values="0 0 0 0 0 0 0 0 0 0 0 0 0 0 0 0 0 0 0.2 0"/>
<feBlend mode="normal" in2="BackgroundImageFix" result="effect1_dropShadow_60_836"/>
<feColorMatrix in="SourceAlpha" type="matrix" values="0 0 0 0 0 0 0 0 0 0 0 0 0 0 0 0 0 0 127 0" result="hardAlpha"/>
<feOffset dy="1"/>
<feGaussianBlur stdDeviation="0.5"/>
<feColorMatrix type="matrix" values="0 0 0 0 0 0 0 0 0 0 0 0 0 0 0 0 0 0 0.1 0"/>
<feBlend mode="normal" in2="effect1_dropShadow_60_836" result="effect2_dropShadow_60_836"/>
<feBlend mode="normal" in="SourceGraphic" in2="effect2_dropShadow_60_836" result="shape"/>
</filter>
<linearGradient id="paint0_linear_60_836" x1="32" y1="64" x2="32" y2="3.779e-07" gradientUnits="userSpaceOnUse">
<stop stop-color="#E93068"/>
<stop offset="0.384975" stop-color="#EC307E"/>
<stop offset="1" stop-color="#FA2EE8"/>
</linearGradient>
</defs>
</svg>
