<svg width="64" height="64" viewBox="0 0 64 64" fill="none" xmlns="http://www.w3.org/2000/svg">
<rect width="64" height="64" rx="15" fill="url(#paint0_linear_6656_990)"/>
<g filter="url(#filter0_dd_6656_990)">
<path fill-rule="evenodd" clip-rule="evenodd" d="M17.1426 46.6405C17.9083 47.7802 19.0462 48.6804 20.4551 49.1658C22.8241 49.9821 26.2863 51.076 31.0204 52.3445C35.7545 53.613 39.2999 54.3967 41.7596 54.8743C44.994 55.5024 48.0948 53.7121 49.1681 50.5971C49.9844 48.228 51.0783 44.7659 52.3468 40.0317C53.6153 35.2976 54.399 31.7522 54.8766 29.2924C55.5047 26.0581 53.7144 22.9573 50.5994 21.884C49.5516 21.523 48.29 21.1077 46.7991 20.647C46.8593 22.4737 46.8977 24.5845 46.8977 26.9959C46.8977 31.9512 46.7353 35.6368 46.5557 38.198C46.2385 42.7214 42.7227 46.2372 38.1993 46.5544C35.6381 46.734 31.9526 46.8964 26.9972 46.8964C22.8523 46.8964 19.5957 46.7828 17.1426 46.6405Z" fill="white"/>
</g>
<g filter="url(#filter1_dd_6656_990)">
<path d="M26.9949 44.4069C22.0938 44.4069 18.4665 44.2463 15.9669 44.071C12.6802 43.8405 10.1484 41.3088 9.9179 38.022C9.74262 35.5224 9.58203 31.8951 9.58203 26.994C9.58203 22.0929 9.74262 18.4655 9.9179 15.9659C10.1484 12.6792 12.6802 10.1474 15.9669 9.91692C18.4665 9.74164 22.0939 9.58105 26.9949 9.58105C31.896 9.58105 35.5234 9.74164 38.023 9.91692C41.3098 10.1474 43.8415 12.6792 44.0719 15.9659C44.2473 18.4655 44.4079 22.0929 44.4079 26.994C44.4079 31.8952 44.2473 35.5224 44.0719 38.022C43.8415 41.3088 41.3098 43.8405 38.023 44.071C35.5234 44.2463 31.896 44.4069 26.9949 44.4069Z" fill="white" fill-opacity="0.35"/>
</g>
<g filter="url(#filter2_dd_6656_990)">
<path fill-rule="evenodd" clip-rule="evenodd" d="M26.9119 14C23.0954 14 19.4529 15.4874 16.9447 17.9988C16.4302 17.7246 16.0057 17.5089 15.658 17.3395C15.2366 17.1342 14.7933 17.1795 14.4665 17.4169C14.141 17.6533 13.9578 18.0604 14.0083 18.5223C14.3409 21.5655 15.1296 23.5885 15.5594 24.5062C15.7691 24.9542 16.2239 25.217 16.7169 25.1748C17.7257 25.0886 19.8691 24.761 22.6661 23.5281C23.0908 23.3408 23.3516 22.9789 23.3937 22.5791C23.436 22.1777 23.2543 21.7714 22.8666 21.5087C22.6386 21.3543 22.3709 21.1778 22.057 20.9773C23.3796 19.8509 25.0188 19.1399 26.9119 19.1399C31.6 19.1399 35.3704 22.5959 35.3704 27.1768C35.3704 28.9627 34.7992 30.6168 33.8262 31.9726C33.4672 32.4728 33.4113 33.1674 33.7868 33.6958L34.9174 35.2871C35.4024 35.9695 36.4121 36.0858 36.9788 35.4148C38.8649 33.1815 40 30.3096 40 27.1768C40 20.0618 34.1443 14 26.9119 14ZM16.1913 29.1936C15.335 29.1936 14.652 29.9813 14.8995 30.8423C15.1548 31.7303 15.4936 32.5788 15.9088 33.3762C16.3093 34.1456 17.3035 34.264 17.9304 33.7233L18.6067 33.1399C19.1842 32.6419 19.2261 31.801 18.8441 31.1942C18.6341 30.8605 18.4523 30.5134 18.3022 30.155C18.0752 29.6129 17.5582 29.1936 16.9321 29.1936H16.1913ZM22.1889 34.2568C21.6656 33.9702 20.9985 33.9992 20.5275 34.4054L19.2907 35.4721C18.6814 35.9977 18.6316 36.9656 19.2963 37.4874C20.3963 38.351 21.6506 39.0272 23.0289 39.4702C23.8206 39.7246 24.5883 39.1633 24.701 38.3788L24.9567 36.5995C25.0605 35.8778 24.5875 35.2274 23.9261 35.0103C23.3245 34.8128 22.7411 34.5593 22.1889 34.2568ZM32.1723 35.244C31.7538 34.6551 30.9753 34.5102 30.3485 34.7847C29.7419 35.0505 29.0975 35.2481 28.4256 35.3675C27.8137 35.4763 27.2866 35.9433 27.1937 36.5903L26.9225 38.4771C26.8034 39.3058 27.4544 40.0849 28.3266 39.9925C29.918 39.824 31.4243 39.3746 32.7929 38.6954C33.5338 38.3278 33.7021 37.397 33.2437 36.752L32.1723 35.244Z" fill="white"/>
</g>
<defs>
<filter id="filter0_dd_6656_990" x="15.1426" y="19.647" width="41.8594" height="38.3521" filterUnits="userSpaceOnUse" color-interpolation-filters="sRGB">
<feFlood flood-opacity="0" result="BackgroundImageFix"/>
<feColorMatrix in="SourceAlpha" type="matrix" values="0 0 0 0 0 0 0 0 0 0 0 0 0 0 0 0 0 0 127 0" result="hardAlpha"/>
<feOffset dy="1"/>
<feGaussianBlur stdDeviation="1"/>
<feColorMatrix type="matrix" values="0 0 0 0 0 0 0 0 0 0 0 0 0 0 0 0 0 0 0.2 0"/>
<feBlend mode="normal" in2="BackgroundImageFix" result="effect1_dropShadow_6656_990"/>
<feColorMatrix in="SourceAlpha" type="matrix" values="0 0 0 0 0 0 0 0 0 0 0 0 0 0 0 0 0 0 127 0" result="hardAlpha"/>
<feOffset dy="1"/>
<feGaussianBlur stdDeviation="0.5"/>
<feColorMatrix type="matrix" values="0 0 0 0 0 0 0 0 0 0 0 0 0 0 0 0 0 0 0.1 0"/>
<feBlend mode="normal" in2="effect1_dropShadow_6656_990" result="effect2_dropShadow_6656_990"/>
<feBlend mode="normal" in="SourceGraphic" in2="effect2_dropShadow_6656_990" result="shape"/>
</filter>
<filter id="filter1_dd_6656_990" x="7.58203" y="8.58105" width="38.8262" height="38.8257" filterUnits="userSpaceOnUse" color-interpolation-filters="sRGB">
<feFlood flood-opacity="0" result="BackgroundImageFix"/>
<feColorMatrix in="SourceAlpha" type="matrix" values="0 0 0 0 0 0 0 0 0 0 0 0 0 0 0 0 0 0 127 0" result="hardAlpha"/>
<feOffset dy="1"/>
<feGaussianBlur stdDeviation="1"/>
<feColorMatrix type="matrix" values="0 0 0 0 0 0 0 0 0 0 0 0 0 0 0 0 0 0 0.2 0"/>
<feBlend mode="normal" in2="BackgroundImageFix" result="effect1_dropShadow_6656_990"/>
<feColorMatrix in="SourceAlpha" type="matrix" values="0 0 0 0 0 0 0 0 0 0 0 0 0 0 0 0 0 0 127 0" result="hardAlpha"/>
<feOffset dy="1"/>
<feGaussianBlur stdDeviation="0.5"/>
<feColorMatrix type="matrix" values="0 0 0 0 0 0 0 0 0 0 0 0 0 0 0 0 0 0 0.1 0"/>
<feBlend mode="normal" in2="effect1_dropShadow_6656_990" result="effect2_dropShadow_6656_990"/>
<feBlend mode="normal" in="SourceGraphic" in2="effect2_dropShadow_6656_990" result="shape"/>
</filter>
<filter id="filter2_dd_6656_990" x="12" y="13" width="30" height="30" filterUnits="userSpaceOnUse" color-interpolation-filters="sRGB">
<feFlood flood-opacity="0" result="BackgroundImageFix"/>
<feColorMatrix in="SourceAlpha" type="matrix" values="0 0 0 0 0 0 0 0 0 0 0 0 0 0 0 0 0 0 127 0" result="hardAlpha"/>
<feOffset dy="1"/>
<feGaussianBlur stdDeviation="1"/>
<feColorMatrix type="matrix" values="0 0 0 0 0 0 0 0 0 0 0 0 0 0 0 0 0 0 0.2 0"/>
<feBlend mode="normal" in2="BackgroundImageFix" result="effect1_dropShadow_6656_990"/>
<feColorMatrix in="SourceAlpha" type="matrix" values="0 0 0 0 0 0 0 0 0 0 0 0 0 0 0 0 0 0 127 0" result="hardAlpha"/>
<feOffset dy="1"/>
<feGaussianBlur stdDeviation="0.5"/>
<feColorMatrix type="matrix" values="0 0 0 0 0 0 0 0 0 0 0 0 0 0 0 0 0 0 0.1 0"/>
<feBlend mode="normal" in2="effect1_dropShadow_6656_990" result="effect2_dropShadow_6656_990"/>
<feBlend mode="normal" in="SourceGraphic" in2="effect2_dropShadow_6656_990" result="shape"/>
</filter>
<linearGradient id="paint0_linear_6656_990" x1="32" y1="64" x2="32" y2="3.779e-07" gradientUnits="userSpaceOnUse">
<stop stop-color="#E93068"/>
<stop offset="0.384975" stop-color="#EC307E"/>
<stop offset="1" stop-color="#FA2EE8"/>
</linearGradient>
</defs>
</svg>
